<?xml version="1.0" encoding="UTF-8" standalone="no"?>
<!DOCTYPE svg PUBLIC "-//W3C//DTD SVG 1.1//EN"
 "http://www.w3.org/Graphics/SVG/1.1/DTD/svg11.dtd">
<!-- Generated by graphviz version 2.38.0 (20140413.2041)
 -->
<!-- Title: models_diagram Pages: 1 -->
<svg width="353pt" height="873pt"
 viewBox="0.00 0.00 352.74 872.80" xmlns="http://www.w3.org/2000/svg" xmlns:xlink="http://www.w3.org/1999/xlink">
<g id="graph0" class="graph" transform="scale(1 1) rotate(0) translate(4 868.8)">
<title>models_diagram</title>
<polygon fill="white" stroke="none" points="-4,4 -4,-868.8 348.745,-868.8 348.745,4 -4,4"/>
<!-- users -->
<g id="node1" class="node"><title>users</title>
<polygon fill="none" stroke="black" points="37.054,-0.5 37.054,-184.5 204.302,-184.5 204.302,-0.5 37.054,-0.5"/>
<text text-anchor="middle" x="120.678" y="-167.9" font-family="Times,serif" font-size="14.00">users</text>
<polyline fill="none" stroke="black" points="37.054,-159.7 204.302,-159.7 "/>
<text text-anchor="start" x="45.054" y="-143.1" font-family="Times,serif" font-size="14.00">id :NUMBER</text>
<text text-anchor="start" x="45.054" y="-126.3" font-family="Times,serif" font-size="14.00">firstName :STRING</text>
<text text-anchor="start" x="45.054" y="-109.5" font-family="Times,serif" font-size="14.00">lastName :STRING</text>
<text text-anchor="start" x="45.054" y="-92.7" font-family="Times,serif" font-size="14.00">email :STRING</text>
<text text-anchor="start" x="45.054" y="-75.9" font-family="Times,serif" font-size="14.00">password_digest :STRING</text>
<text text-anchor="start" x="45.054" y="-59.1" font-family="Times,serif" font-size="14.00">password :VIRTUAL</text>
<text text-anchor="start" x="45.054" y="-42.3" font-family="Times,serif" font-size="14.00">isAdmin :BOOLEAN</text>
<text text-anchor="start" x="45.054" y="-25.5" font-family="Times,serif" font-size="14.00">created_at :DATE</text>
<text text-anchor="start" x="45.054" y="-8.7" font-family="Times,serif" font-size="14.00">updated_at :DATE</text>
</g>
<!-- categories -->
<g id="node2" class="node"><title>categories</title>
<polygon fill="none" stroke="black" points="222.611,-42.5 222.611,-142.5 344.745,-142.5 344.745,-42.5 222.611,-42.5"/>
<text text-anchor="middle" x="283.678" y="-125.9" font-family="Times,serif" font-size="14.00">categories</text>
<polyline fill="none" stroke="black" points="222.611,-117.7 344.745,-117.7 "/>
<text text-anchor="start" x="230.611" y="-101.1" font-family="Times,serif" font-size="14.00">id :NUMBER</text>
<text text-anchor="start" x="230.611" y="-84.3" font-family="Times,serif" font-size="14.00">name :STRING</text>
<text text-anchor="start" x="230.611" y="-67.5" font-family="Times,serif" font-size="14.00">created_at :DATE</text>
<text text-anchor="start" x="230.611" y="-50.7" font-family="Times,serif" font-size="14.00">updated_at :DATE</text>
</g>
<!-- products -->
<g id="node3" class="node"><title>products</title>
<polygon fill="none" stroke="black" points="148.62,-221.5 148.62,-489.5 298.736,-489.5 298.736,-221.5 148.62,-221.5"/>
<text text-anchor="middle" x="223.678" y="-472.9" font-family="Times,serif" font-size="14.00">products</text>
<polyline fill="none" stroke="black" points="148.62,-464.7 298.736,-464.7 "/>
<text text-anchor="start" x="156.62" y="-448.1" font-family="Times,serif" font-size="14.00">id :NUMBER</text>
<text text-anchor="start" x="156.62" y="-431.3" font-family="Times,serif" font-size="14.00">name :STRING</text>
<text text-anchor="start" x="156.62" y="-414.5" font-family="Times,serif" font-size="14.00">description :TEXT</text>
<text text-anchor="start" x="156.62" y="-397.7" font-family="Times,serif" font-size="14.00">address :STRING</text>
<text text-anchor="start" x="156.62" y="-380.9" font-family="Times,serif" font-size="14.00">city :STRING</text>
<text text-anchor="start" x="156.62" y="-364.1" font-family="Times,serif" font-size="14.00">state :STRING</text>
<text text-anchor="start" x="156.62" y="-347.3" font-family="Times,serif" font-size="14.00">zip :STRING</text>
<text text-anchor="start" x="156.62" y="-330.5" font-family="Times,serif" font-size="14.00">price :NUMBER</text>
<text text-anchor="start" x="156.62" y="-313.7" font-family="Times,serif" font-size="14.00">end_date :DATEONLY</text>
<text text-anchor="start" x="156.62" y="-296.9" font-family="Times,serif" font-size="14.00">img_url :STRING</text>
<text text-anchor="start" x="156.62" y="-280.1" font-family="Times,serif" font-size="14.00">created_at :DATE</text>
<text text-anchor="start" x="156.62" y="-263.3" font-family="Times,serif" font-size="14.00">updated_at :DATE</text>
<text text-anchor="start" x="156.62" y="-246.5" font-family="Times,serif" font-size="14.00">seller_id :NUMBER</text>
<text text-anchor="start" x="156.62" y="-229.7" font-family="Times,serif" font-size="14.00">category_id :NUMBER</text>
</g>
<!-- products&#45;&gt;users -->
<g id="edge1" class="edge"><title>products&#45;&gt;users</title>
<path fill="none" stroke="black" d="M167.444,-212.006C164.807,-205.323 162.186,-198.682 159.61,-192.155"/>
<polygon fill="black" stroke="black" points="167.451,-212.022 166.936,-222.976 169.286,-216.673 171.122,-221.324 171.122,-221.324 171.122,-221.324 169.286,-216.673 175.308,-219.672 167.451,-212.022 167.451,-212.022"/>
<ellipse fill="none" stroke="black" cx="158.077" cy="-188.269" rx="4.00001" ry="4.00001"/>
</g>
<!-- products&#45;&gt;categories -->
<g id="edge2" class="edge"><title>products&#45;&gt;categories</title>
<path fill="none" stroke="black" d="M256.565,-211.442C261.5,-189.976 266.329,-168.966 270.513,-150.767"/>
<polygon fill="black" stroke="black" points="256.533,-211.578 249.907,-220.316 255.413,-216.451 254.293,-221.324 254.293,-221.324 254.293,-221.324 255.413,-216.451 258.679,-222.332 256.533,-211.578 256.533,-211.578"/>
<ellipse fill="none" stroke="black" cx="271.492" cy="-146.51" rx="4.00001" ry="4.00001"/>
</g>
<!-- reservations -->
<g id="node4" class="node"><title>reservations</title>
<polygon fill="none" stroke="black" points="99.7125,-526.5 99.7125,-693.7 243.643,-693.7 243.643,-526.5 99.7125,-526.5"/>
<text text-anchor="middle" x="171.678" y="-677.1" font-family="Times,serif" font-size="14.00">reservations</text>
<polyline fill="none" stroke="black" points="99.7125,-668.9 243.643,-668.9 "/>
<text text-anchor="start" x="107.712" y="-652.3" font-family="Times,serif" font-size="14.00">id :NUMBER</text>
<text text-anchor="start" x="107.712" y="-635.5" font-family="Times,serif" font-size="14.00">date :DATEONLY</text>
<text text-anchor="start" x="107.712" y="-618.7" font-family="Times,serif" font-size="14.00">order :NUMBER</text>
<text text-anchor="start" x="107.712" y="-601.9" font-family="Times,serif" font-size="14.00">status :ENUM</text>
<text text-anchor="start" x="107.712" y="-585.1" font-family="Times,serif" font-size="14.00">created_at :DATE</text>
<text text-anchor="start" x="107.712" y="-568.3" font-family="Times,serif" font-size="14.00">updated_at :DATE</text>
<text text-anchor="start" x="107.712" y="-551.5" font-family="Times,serif" font-size="14.00">renter_id :NUMBER</text>
<text text-anchor="start" x="107.712" y="-534.7" font-family="Times,serif" font-size="14.00">product_id :NUMBER</text>
</g>
<!-- reservations&#45;&gt;users -->
<g id="edge3" class="edge"><title>reservations&#45;&gt;users</title>
<path fill="none" stroke="black" d="M144.703,-516.334C142.751,-507.486 141.024,-498.607 139.678,-490 123.973,-389.614 120.056,-273.343 119.558,-192.781"/>
<polygon fill="black" stroke="black" points="144.753,-516.549 142.609,-527.303 145.874,-521.422 146.995,-526.294 146.995,-526.294 146.995,-526.294 145.874,-521.422 151.38,-525.285 144.753,-516.549 144.753,-516.549"/>
<ellipse fill="none" stroke="black" cx="119.538" cy="-188.609" rx="4" ry="4"/>
</g>
<!-- reservations&#45;&gt;products -->
<g id="edge4" class="edge"><title>reservations&#45;&gt;products</title>
<path fill="none" stroke="black" d="M190.722,-516.591C191.992,-510.421 193.286,-504.134 194.591,-497.796"/>
<polygon fill="black" stroke="black" points="190.721,-516.595 184.297,-525.482 189.713,-521.492 188.705,-526.389 188.705,-526.389 188.705,-526.389 189.713,-521.492 193.112,-527.297 190.721,-516.595 190.721,-516.595"/>
<ellipse fill="none" stroke="black" cx="195.441" cy="-493.664" rx="4.00001" ry="4.00001"/>
</g>
<!-- seller_reviews -->
<g id="node5" class="node"><title>seller_reviews</title>
<polygon fill="none" stroke="black" points="0,-730.7 0,-864.3 163.356,-864.3 163.356,-730.7 0,-730.7"/>
<text text-anchor="middle" x="81.6778" y="-847.7" font-family="Times,serif" font-size="14.00">seller_reviews</text>
<polyline fill="none" stroke="black" points="0,-839.5 163.356,-839.5 "/>
<text text-anchor="start" x="8" y="-822.9" font-family="Times,serif" font-size="14.00">id :NUMBER</text>
<text text-anchor="start" x="8" y="-806.1" font-family="Times,serif" font-size="14.00">stars :NUMBER</text>
<text text-anchor="start" x="8" y="-789.3" font-family="Times,serif" font-size="14.00">text :TEXT</text>
<text text-anchor="start" x="8" y="-772.5" font-family="Times,serif" font-size="14.00">created_at :DATE</text>
<text text-anchor="start" x="8" y="-755.7" font-family="Times,serif" font-size="14.00">updated_at :DATE</text>
<text text-anchor="start" x="8" y="-738.9" font-family="Times,serif" font-size="14.00">reservation_id :NUMBER</text>
</g>
<!-- seller_reviews&#45;&gt;reservations -->
<g id="edge5" class="edge"><title>seller_reviews&#45;&gt;reservations</title>
<path fill="none" stroke="black" d="M118.033,-721.607C121.277,-714.926 124.583,-708.116 127.88,-701.324"/>
<polygon fill="black" stroke="black" points="118.029,-721.617 109.614,-728.648 115.845,-726.115 113.662,-730.613 113.662,-730.613 113.662,-730.613 115.845,-726.115 117.71,-732.578 118.029,-721.617 118.029,-721.617"/>
<ellipse fill="none" stroke="black" cx="129.704" cy="-697.566" rx="4.00002" ry="4.00002"/>
</g>
<!-- renter_reviews -->
<g id="node6" class="node"><title>renter_reviews</title>
<polygon fill="none" stroke="black" points="181,-730.7 181,-864.3 344.356,-864.3 344.356,-730.7 181,-730.7"/>
<text text-anchor="middle" x="262.678" y="-847.7" font-family="Times,serif" font-size="14.00">renter_reviews</text>
<polyline fill="none" stroke="black" points="181,-839.5 344.356,-839.5 "/>
<text text-anchor="start" x="189" y="-822.9" font-family="Times,serif" font-size="14.00">id :NUMBER</text>
<text text-anchor="start" x="189" y="-806.1" font-family="Times,serif" font-size="14.00">stars :NUMBER</text>
<text text-anchor="start" x="189" y="-789.3" font-family="Times,serif" font-size="14.00">text :TEXT</text>
<text text-anchor="start" x="189" y="-772.5" font-family="Times,serif" font-size="14.00">created_at :DATE</text>
<text text-anchor="start" x="189" y="-755.7" font-family="Times,serif" font-size="14.00">updated_at :DATE</text>
<text text-anchor="start" x="189" y="-738.9" font-family="Times,serif" font-size="14.00">reservation_id :NUMBER</text>
</g>
<!-- renter_reviews&#45;&gt;reservations -->
<g id="edge6" class="edge"><title>renter_reviews&#45;&gt;reservations</title>
<path fill="none" stroke="black" d="M225.918,-721.607C222.639,-714.926 219.296,-708.116 215.962,-701.324"/>
<polygon fill="black" stroke="black" points="225.932,-721.636 226.299,-732.596 228.135,-726.124 230.338,-730.613 230.338,-730.613 230.338,-730.613 228.135,-726.124 234.378,-728.63 225.932,-721.636 225.932,-721.636"/>
<ellipse fill="none" stroke="black" cx="214.114" cy="-697.558" rx="4.00002" ry="4.00002"/>
</g>
</g>
</svg>
